<mxfile host="app.diagrams.net" agent="Mozilla/5.0 (Windows NT 10.0; Win64; x64) AppleWebKit/537.36 (KHTML, like Gecko) Chrome/135.0.0.0 Safari/537.36 Edg/135.0.0.0" version="26.2.12">
  <diagram name="Page-1" id="ysqp1O8fpWKtBg5_zlwZ">
    <mxGraphModel dx="2542" dy="951" grid="0" gridSize="10" guides="1" tooltips="1" connect="1" arrows="1" fold="1" page="1" pageScale="1" pageWidth="850" pageHeight="1100" background="#FFFFFF" math="0" shadow="0">
      <root>
        <mxCell id="0" />
        <mxCell id="1" parent="0" />
        <mxCell id="jTNf8f75Ps5YETUIIDcn-1" value="User" style="shape=umlActor;verticalLabelPosition=bottom;verticalAlign=top;html=1;" vertex="1" parent="1">
          <mxGeometry x="-455" y="302" width="30" height="60" as="geometry" />
        </mxCell>
        <mxCell id="jTNf8f75Ps5YETUIIDcn-5" value="" style="endArrow=none;dashed=1;html=1;dashPattern=1 3;strokeWidth=2;rounded=0;" edge="1" parent="1">
          <mxGeometry width="50" height="50" relative="1" as="geometry">
            <mxPoint x="-10" y="1037.142857142857" as="sourcePoint" />
            <mxPoint x="-10" y="90" as="targetPoint" />
          </mxGeometry>
        </mxCell>
        <mxCell id="jTNf8f75Ps5YETUIIDcn-6" value="" style="endArrow=none;dashed=1;html=1;dashPattern=1 3;strokeWidth=2;rounded=0;" edge="1" parent="1">
          <mxGeometry width="50" height="50" relative="1" as="geometry">
            <mxPoint x="-10" y="1030" as="sourcePoint" />
            <mxPoint x="-10" y="90" as="targetPoint" />
            <Array as="points">
              <mxPoint x="500" y="1030" />
              <mxPoint x="490" y="90" />
            </Array>
          </mxGeometry>
        </mxCell>
        <mxCell id="jTNf8f75Ps5YETUIIDcn-7" value="Register" style="ellipse;whiteSpace=wrap;html=1;" vertex="1" parent="1">
          <mxGeometry x="50" y="140" width="140" height="70" as="geometry" />
        </mxCell>
        <mxCell id="jTNf8f75Ps5YETUIIDcn-8" value="Login" style="ellipse;whiteSpace=wrap;html=1;" vertex="1" parent="1">
          <mxGeometry x="50" y="237" width="140" height="70" as="geometry" />
        </mxCell>
        <mxCell id="jTNf8f75Ps5YETUIIDcn-9" value="Authentication" style="ellipse;whiteSpace=wrap;html=1;" vertex="1" parent="1">
          <mxGeometry x="285" y="237" width="140" height="70" as="geometry" />
        </mxCell>
        <mxCell id="jTNf8f75Ps5YETUIIDcn-10" value="&amp;lt;&amp;lt;Include&amp;gt;&amp;gt;" style="html=1;verticalAlign=bottom;endArrow=open;dashed=1;endSize=8;curved=0;rounded=0;entryX=0;entryY=0.5;entryDx=0;entryDy=0;exitX=1;exitY=0.5;exitDx=0;exitDy=0;" edge="1" parent="1" source="jTNf8f75Ps5YETUIIDcn-8" target="jTNf8f75Ps5YETUIIDcn-9">
          <mxGeometry relative="1" as="geometry">
            <mxPoint x="120" y="367" as="sourcePoint" />
            <mxPoint x="40" y="367" as="targetPoint" />
          </mxGeometry>
        </mxCell>
        <mxCell id="jTNf8f75Ps5YETUIIDcn-11" value="Search music" style="ellipse;whiteSpace=wrap;html=1;" vertex="1" parent="1">
          <mxGeometry x="50" y="347" width="140" height="70" as="geometry" />
        </mxCell>
        <mxCell id="jTNf8f75Ps5YETUIIDcn-12" value="Recommend" style="ellipse;whiteSpace=wrap;html=1;" vertex="1" parent="1">
          <mxGeometry x="290" y="347" width="140" height="70" as="geometry" />
        </mxCell>
        <mxCell id="jTNf8f75Ps5YETUIIDcn-13" value="&amp;lt;&amp;lt;Extend&amp;gt;&amp;gt;" style="html=1;verticalAlign=bottom;endArrow=open;dashed=1;endSize=8;curved=0;rounded=0;exitX=0;exitY=0.5;exitDx=0;exitDy=0;entryX=1;entryY=0.5;entryDx=0;entryDy=0;" edge="1" parent="1" source="jTNf8f75Ps5YETUIIDcn-12" target="jTNf8f75Ps5YETUIIDcn-11">
          <mxGeometry relative="1" as="geometry">
            <mxPoint x="195" y="381.52" as="sourcePoint" />
            <mxPoint x="210" y="467" as="targetPoint" />
          </mxGeometry>
        </mxCell>
        <mxCell id="jTNf8f75Ps5YETUIIDcn-14" value="Create Playlist" style="ellipse;whiteSpace=wrap;html=1;" vertex="1" parent="1">
          <mxGeometry x="50" y="549" width="140" height="70" as="geometry" />
        </mxCell>
        <mxCell id="jTNf8f75Ps5YETUIIDcn-15" value="Select song" style="ellipse;whiteSpace=wrap;html=1;" vertex="1" parent="1">
          <mxGeometry x="50" y="440" width="140" height="70" as="geometry" />
        </mxCell>
        <mxCell id="jTNf8f75Ps5YETUIIDcn-17" value="Play song" style="ellipse;whiteSpace=wrap;html=1;" vertex="1" parent="1">
          <mxGeometry x="290" y="440" width="140" height="70" as="geometry" />
        </mxCell>
        <mxCell id="jTNf8f75Ps5YETUIIDcn-18" value="Add song to playlist" style="ellipse;whiteSpace=wrap;html=1;" vertex="1" parent="1">
          <mxGeometry x="290" y="549" width="140" height="70" as="geometry" />
        </mxCell>
        <mxCell id="jTNf8f75Ps5YETUIIDcn-20" value="&amp;lt;&amp;lt;Include&amp;gt;&amp;gt;" style="html=1;verticalAlign=bottom;endArrow=open;dashed=1;endSize=8;curved=0;rounded=0;entryX=0;entryY=0.5;entryDx=0;entryDy=0;exitX=1;exitY=0.5;exitDx=0;exitDy=0;" edge="1" parent="1">
          <mxGeometry relative="1" as="geometry">
            <mxPoint x="190" y="474.52" as="sourcePoint" />
            <mxPoint x="285" y="474.52" as="targetPoint" />
          </mxGeometry>
        </mxCell>
        <mxCell id="jTNf8f75Ps5YETUIIDcn-21" value="Manage profile" style="ellipse;whiteSpace=wrap;html=1;" vertex="1" parent="1">
          <mxGeometry x="50" y="770" width="140" height="70" as="geometry" />
        </mxCell>
        <mxCell id="jTNf8f75Ps5YETUIIDcn-23" value="" style="endArrow=none;html=1;rounded=0;entryX=0;entryY=0.5;entryDx=0;entryDy=0;exitX=1;exitY=0.3333333333333333;exitDx=0;exitDy=0;exitPerimeter=0;" edge="1" parent="1" source="jTNf8f75Ps5YETUIIDcn-2">
          <mxGeometry width="50" height="50" relative="1" as="geometry">
            <mxPoint x="50" y="477" as="sourcePoint" />
            <mxPoint x="50" y="380" as="targetPoint" />
            <Array as="points" />
          </mxGeometry>
        </mxCell>
        <mxCell id="jTNf8f75Ps5YETUIIDcn-25" value="Subcription" style="ellipse;whiteSpace=wrap;html=1;" vertex="1" parent="1">
          <mxGeometry x="50" y="880" width="140" height="70" as="geometry" />
        </mxCell>
        <mxCell id="jTNf8f75Ps5YETUIIDcn-26" value="Payment" style="ellipse;whiteSpace=wrap;html=1;" vertex="1" parent="1">
          <mxGeometry x="290" y="880" width="140" height="70" as="geometry" />
        </mxCell>
        <mxCell id="jTNf8f75Ps5YETUIIDcn-27" value="&lt;p style=&quot;margin:0px;margin-top:4px;text-align:center;&quot;&gt;&lt;b&gt;&amp;lt;&amp;lt;actor&amp;gt;&amp;gt;&lt;/b&gt;&lt;/p&gt;&lt;p style=&quot;margin:0px;margin-top:4px;text-align:center;&quot;&gt;&lt;b&gt;Payment Gateway&lt;/b&gt;&lt;/p&gt;" style="verticalAlign=top;align=left;overflow=fill;html=1;whiteSpace=wrap;" vertex="1" parent="1">
          <mxGeometry x="589" y="885" width="140" height="60" as="geometry" />
        </mxCell>
        <mxCell id="jTNf8f75Ps5YETUIIDcn-29" value="&amp;lt;&amp;lt;Include&amp;gt;&amp;gt;" style="html=1;verticalAlign=bottom;endArrow=open;dashed=1;endSize=8;curved=0;rounded=0;entryX=0;entryY=0.5;entryDx=0;entryDy=0;exitX=1;exitY=0.5;exitDx=0;exitDy=0;" edge="1" parent="1">
          <mxGeometry relative="1" as="geometry">
            <mxPoint x="195" y="914.52" as="sourcePoint" />
            <mxPoint x="290" y="914.52" as="targetPoint" />
          </mxGeometry>
        </mxCell>
        <mxCell id="jTNf8f75Ps5YETUIIDcn-30" value="Delete Playlist" style="ellipse;whiteSpace=wrap;html=1;" vertex="1" parent="1">
          <mxGeometry x="285" y="770" width="140" height="70" as="geometry" />
        </mxCell>
        <mxCell id="jTNf8f75Ps5YETUIIDcn-31" value="&amp;lt;&amp;lt;Extend&amp;gt;&amp;gt;" style="html=1;verticalAlign=bottom;endArrow=open;dashed=1;endSize=8;curved=0;rounded=0;entryX=1;entryY=0.6;entryDx=0;entryDy=0;entryPerimeter=0;exitX=0;exitY=0.5;exitDx=0;exitDy=0;" edge="1" parent="1" source="jTNf8f75Ps5YETUIIDcn-30" target="jTNf8f75Ps5YETUIIDcn-14">
          <mxGeometry x="0.0005" relative="1" as="geometry">
            <mxPoint x="280" y="680" as="sourcePoint" />
            <mxPoint x="210" y="650" as="targetPoint" />
            <mxPoint as="offset" />
          </mxGeometry>
        </mxCell>
        <mxCell id="jTNf8f75Ps5YETUIIDcn-32" value="&amp;lt;&amp;lt;Extend&amp;gt;&amp;gt;" style="html=1;verticalAlign=bottom;endArrow=open;dashed=1;endSize=8;curved=0;rounded=0;entryX=1;entryY=0.6;entryDx=0;entryDy=0;entryPerimeter=0;exitX=0;exitY=0.5;exitDx=0;exitDy=0;" edge="1" parent="1" source="jTNf8f75Ps5YETUIIDcn-18">
          <mxGeometry x="0.0005" relative="1" as="geometry">
            <mxPoint x="280" y="569" as="sourcePoint" />
            <mxPoint x="190" y="480" as="targetPoint" />
            <mxPoint as="offset" />
          </mxGeometry>
        </mxCell>
        <mxCell id="jTNf8f75Ps5YETUIIDcn-35" value="" style="endArrow=none;html=1;rounded=0;exitX=0.872;exitY=0.299;exitDx=0;exitDy=0;exitPerimeter=0;entryX=0;entryY=0.5;entryDx=0;entryDy=0;" edge="1" parent="1" source="jTNf8f75Ps5YETUIIDcn-1" target="jTNf8f75Ps5YETUIIDcn-25">
          <mxGeometry width="50" height="50" relative="1" as="geometry">
            <mxPoint x="-420" y="340" as="sourcePoint" />
            <mxPoint x="50" y="794" as="targetPoint" />
          </mxGeometry>
        </mxCell>
        <mxCell id="jTNf8f75Ps5YETUIIDcn-36" value="&lt;p style=&quot;margin:0px;margin-top:4px;text-align:center;&quot;&gt;&lt;b&gt;&amp;lt;&amp;lt;actor&amp;gt;&amp;gt;&lt;/b&gt;&lt;/p&gt;&lt;p style=&quot;margin:0px;margin-top:4px;text-align:center;&quot;&gt;&lt;b&gt;Gmail Authentication&lt;/b&gt;&lt;/p&gt;" style="verticalAlign=top;align=left;overflow=fill;html=1;whiteSpace=wrap;" vertex="1" parent="1">
          <mxGeometry x="590" y="242" width="140" height="60" as="geometry" />
        </mxCell>
        <mxCell id="jTNf8f75Ps5YETUIIDcn-38" value="Check Duplicate" style="ellipse;whiteSpace=wrap;html=1;" vertex="1" parent="1">
          <mxGeometry x="285" y="140" width="140" height="70" as="geometry" />
        </mxCell>
        <mxCell id="jTNf8f75Ps5YETUIIDcn-39" value="&amp;lt;&amp;lt;Include&amp;gt;&amp;gt;" style="html=1;verticalAlign=bottom;endArrow=open;dashed=1;endSize=8;curved=0;rounded=0;entryX=0;entryY=0.5;entryDx=0;entryDy=0;exitX=1;exitY=0.5;exitDx=0;exitDy=0;" edge="1" parent="1">
          <mxGeometry relative="1" as="geometry">
            <mxPoint x="190" y="174.41" as="sourcePoint" />
            <mxPoint x="285" y="174.41" as="targetPoint" />
          </mxGeometry>
        </mxCell>
        <mxCell id="jTNf8f75Ps5YETUIIDcn-43" value="" style="endArrow=classic;html=1;rounded=0;exitX=1;exitY=0.3333333333333333;exitDx=0;exitDy=0;exitPerimeter=0;entryX=0.063;entryY=0.372;entryDx=0;entryDy=0;entryPerimeter=0;" edge="1" parent="1" source="jTNf8f75Ps5YETUIIDcn-1" target="jTNf8f75Ps5YETUIIDcn-2">
          <mxGeometry width="50" height="50" relative="1" as="geometry">
            <mxPoint x="-425" y="361.99651162790695" as="sourcePoint" />
            <mxPoint x="-230" y="370" as="targetPoint" />
          </mxGeometry>
        </mxCell>
        <mxCell id="jTNf8f75Ps5YETUIIDcn-50" value="" style="endArrow=none;html=1;rounded=0;exitX=1;exitY=0.3333333333333333;exitDx=0;exitDy=0;exitPerimeter=0;entryX=0;entryY=0.5;entryDx=0;entryDy=0;" edge="1" parent="1" source="jTNf8f75Ps5YETUIIDcn-1" target="jTNf8f75Ps5YETUIIDcn-21">
          <mxGeometry width="50" height="50" relative="1" as="geometry">
            <mxPoint x="-429" y="210" as="sourcePoint" />
            <mxPoint x="50" y="684" as="targetPoint" />
          </mxGeometry>
        </mxCell>
        <mxCell id="jTNf8f75Ps5YETUIIDcn-51" value="" style="endArrow=none;html=1;rounded=0;entryX=0;entryY=0.5;entryDx=0;entryDy=0;exitX=0.725;exitY=0.327;exitDx=0;exitDy=0;exitPerimeter=0;" edge="1" parent="1" source="jTNf8f75Ps5YETUIIDcn-1" target="jTNf8f75Ps5YETUIIDcn-14">
          <mxGeometry width="50" height="50" relative="1" as="geometry">
            <mxPoint x="-430" y="320" as="sourcePoint" />
            <mxPoint x="-370" y="420" as="targetPoint" />
          </mxGeometry>
        </mxCell>
        <mxCell id="jTNf8f75Ps5YETUIIDcn-52" value="" style="endArrow=none;html=1;rounded=0;exitX=1;exitY=0.3333333333333333;exitDx=0;exitDy=0;exitPerimeter=0;entryX=0;entryY=0.5;entryDx=0;entryDy=0;" edge="1" parent="1" source="jTNf8f75Ps5YETUIIDcn-1" target="jTNf8f75Ps5YETUIIDcn-7">
          <mxGeometry width="50" height="50" relative="1" as="geometry">
            <mxPoint x="-110" y="350" as="sourcePoint" />
            <mxPoint x="-60" y="300" as="targetPoint" />
          </mxGeometry>
        </mxCell>
        <mxCell id="jTNf8f75Ps5YETUIIDcn-54" value="" style="endArrow=none;html=1;rounded=0;entryX=0;entryY=0.5;entryDx=0;entryDy=0;exitX=1;exitY=0.3333333333333333;exitDx=0;exitDy=0;exitPerimeter=0;" edge="1" parent="1" source="jTNf8f75Ps5YETUIIDcn-1" target="jTNf8f75Ps5YETUIIDcn-8">
          <mxGeometry width="50" height="50" relative="1" as="geometry">
            <mxPoint x="-120" y="326" as="sourcePoint" />
            <mxPoint x="-70" y="276" as="targetPoint" />
          </mxGeometry>
        </mxCell>
        <mxCell id="jTNf8f75Ps5YETUIIDcn-2" value="Guess" style="shape=umlActor;verticalLabelPosition=bottom;verticalAlign=top;html=1;" vertex="1" parent="1">
          <mxGeometry x="-200" y="330" width="30" height="60" as="geometry" />
        </mxCell>
        <mxCell id="jTNf8f75Ps5YETUIIDcn-57" value="" style="endArrow=none;html=1;rounded=0;exitX=1;exitY=0.3333333333333333;exitDx=0;exitDy=0;exitPerimeter=0;entryX=0;entryY=0.5;entryDx=0;entryDy=0;" edge="1" parent="1" source="jTNf8f75Ps5YETUIIDcn-2" target="jTNf8f75Ps5YETUIIDcn-15">
          <mxGeometry width="50" height="50" relative="1" as="geometry">
            <mxPoint x="-110" y="500" as="sourcePoint" />
            <mxPoint x="-60" y="450" as="targetPoint" />
          </mxGeometry>
        </mxCell>
        <mxCell id="jTNf8f75Ps5YETUIIDcn-58" value="&amp;lt;&amp;lt;Extend&amp;gt;&amp;gt;" style="html=1;verticalAlign=bottom;endArrow=open;dashed=1;endSize=8;curved=0;rounded=0;entryX=1;entryY=0.5;entryDx=0;entryDy=0;exitX=0;exitY=0.5;exitDx=0;exitDy=0;" edge="1" parent="1" source="jTNf8f75Ps5YETUIIDcn-18" target="jTNf8f75Ps5YETUIIDcn-14">
          <mxGeometry x="0.0005" relative="1" as="geometry">
            <mxPoint x="300" y="594" as="sourcePoint" />
            <mxPoint x="200" y="490" as="targetPoint" />
            <mxPoint as="offset" />
          </mxGeometry>
        </mxCell>
        <mxCell id="jTNf8f75Ps5YETUIIDcn-59" value="&amp;lt;&amp;lt;Extend&amp;gt;&amp;gt;" style="html=1;verticalAlign=bottom;endArrow=open;dashed=1;endSize=8;curved=0;rounded=0;entryX=1;entryY=0.6;entryDx=0;entryDy=0;entryPerimeter=0;exitX=0.034;exitY=0.645;exitDx=0;exitDy=0;exitPerimeter=0;" edge="1" parent="1" source="jTNf8f75Ps5YETUIIDcn-60">
          <mxGeometry x="0.0005" relative="1" as="geometry">
            <mxPoint x="290" y="694" as="sourcePoint" />
            <mxPoint x="190" y="590" as="targetPoint" />
            <mxPoint as="offset" />
          </mxGeometry>
        </mxCell>
        <mxCell id="jTNf8f75Ps5YETUIIDcn-60" value="Remove song out of playlist" style="ellipse;whiteSpace=wrap;html=1;" vertex="1" parent="1">
          <mxGeometry x="290" y="650" width="140" height="70" as="geometry" />
        </mxCell>
        <mxCell id="jTNf8f75Ps5YETUIIDcn-61" value="" style="endArrow=none;html=1;rounded=0;entryX=0;entryY=0.5;entryDx=0;entryDy=0;exitX=1;exitY=0.5;exitDx=0;exitDy=0;" edge="1" parent="1" source="jTNf8f75Ps5YETUIIDcn-26" target="jTNf8f75Ps5YETUIIDcn-27">
          <mxGeometry width="50" height="50" relative="1" as="geometry">
            <mxPoint x="330" y="890" as="sourcePoint" />
            <mxPoint x="380" y="840" as="targetPoint" />
          </mxGeometry>
        </mxCell>
        <mxCell id="jTNf8f75Ps5YETUIIDcn-62" value="" style="endArrow=none;html=1;rounded=0;entryX=0;entryY=0.5;entryDx=0;entryDy=0;exitX=1;exitY=0.5;exitDx=0;exitDy=0;" edge="1" parent="1" source="jTNf8f75Ps5YETUIIDcn-9" target="jTNf8f75Ps5YETUIIDcn-36">
          <mxGeometry width="50" height="50" relative="1" as="geometry">
            <mxPoint x="150" y="610" as="sourcePoint" />
            <mxPoint x="200" y="560" as="targetPoint" />
          </mxGeometry>
        </mxCell>
      </root>
    </mxGraphModel>
  </diagram>
</mxfile>
